<mxfile host="app.diagrams.net" agent="Mozilla/5.0 (Windows NT 10.0; Win64; x64) AppleWebKit/537.36 (KHTML, like Gecko) Chrome/132.0.0.0 Safari/537.36" version="24.8.3">
  <diagram name="第 1 页" id="HAWXKzT5B0M-W4HSW502">
    <mxGraphModel dx="1434" dy="746" grid="1" gridSize="10" guides="1" tooltips="1" connect="1" arrows="1" fold="1" page="1" pageScale="1" pageWidth="4681" pageHeight="3300" math="0" shadow="0">
      <root>
        <mxCell id="0" />
        <mxCell id="1" parent="0" />
        <mxCell id="XfDxgbfiOiKdEspsg-ZD-1" value="" style="shape=image;verticalLabelPosition=bottom;labelBackgroundColor=default;verticalAlign=top;aspect=fixed;imageAspect=0;image=data:image/png,iVBORw0KGgoAAAANSUhEUgAAAckAAAC/CAIAAAAaUbBOAAAgAElEQVR4Ae1d348cxfHfJ0BJHgAH3vJXWOIB2VHyQPJGlCBFOQWTJ4iSlygQIkx8wXZiY7iEWDiRsKKIsyzliyAJEWAU/+LW5iLbAUKwcbDw/djobJ+QEpS9uz2Fvd2dL7O1U9tb09PTs7XbPTNXq5Pd1d3V3VWf6s/W9MzuVoLua319HQpD/OtLd3l5eYjVgoqvNXPmFXvt4eb42Zeu4FsyfCvCNfaI+vWV7D17pHzxI2dewbdk+Aq32gPa68nZPxxd2Xv2UHH87EtX8C0ZvsKt9oAKtzr1lXCNvbt9vR9w5i09vsKt9gEs3OrUV6Xfe8SbYi9xiEHkcLozXeFWA4L6JmfYkOll7xGHGERfGHHmFXwNgJImjp+d6Qq3EtTSRWfYkKXI3iMOMYi+MOLMK/gaACVNHD870xVuJaili86wIUuRvUccYhB9YcSZV/A1AEqaOH52pivcSlBLF51hQ5Yie484xCD6wogzr+BrAJQ0cfzsTFe4laCWLjrDhixF9h5xiEH0hRFnXsHXAChp4vjZma5wK0EtXXSGDVmK7D3iEIPoCyPOvIKvAVDSxPGzM13hVoJauugMG7IU2XvEIQbRF0aceQVfA6CkieNnZ7rCrQS1dNEZNmQpsveIQwyiL4w48wq+BkBJE8fPznSFWwlq6aIzbMhSZO8RhxhEXxhx5hV8DYCSJo6fnekKtxLU0kVn2JClyN4jDjGIvjDizCv4GgAlTRw/O9OtrBf2tby8XNi1D7NwsXcYrxVHR/AtDlZWK5W8lbwjpovO3vfIUiSvIQ4xiL4w4swr+BoAJU0cPzvTFW4lqKWLzrAhS5G9RxxiEH1hxJlX8DUASpo4fnamK9xKUEsXnWFDliJ7jzjEIPrCiDOv4GsAlDRx/OxMV7iVoJYuOsOGLEX2HnGIQfSFEWdewdcAKGni+NmZrnArQS1ddIYNWYrsPeIQg+gLI868gq8BUNLE8bMzXeFWglq66AwbshTZe8QhBtEXRpx5BV8DoKSJ42dnusKtBLV00Rk2ZCmy94hDDKIvjDjzCr4GQEkTx8/OdIVbCWrpojNsyFJk7xGHGERfGHHmFXwNgJImjp+d6Qq3EtTSRWfYkKXI3iMOMYi+MOLMK/gaACVNHD870y0zt7bb7Vb3RYAJgsCZf8nUnHll7xFnGkSOn33pCr4GQEmTL4wyzVtCbgVKbUavVqtFgBFujTvEUJMpnsg4HF3hGuJMg8jxsy/d0uNbKm7tdDoRo4b/b2xsNJvNdrsdD0pf8cSZt/SxSGASe4lDDCInrnzplh7fYnNrp9NpRy+IvGaz2Wq1gE9brVaz2ex0OvGg9BVPnHlLH4sEJrGXOMQgcuLKl27p8S0wt16/fl3NUuPX/pC3aiPSVzxx5i19LBKkxF7iEIPIiStfuqXHt2Dciklop9NZWlqCS/52uw0ki60QhXAsoI1IX/HEmbf0sUiQEnuJQwwiJ6586ZYe32Jwa6fTgQt8PD9tt9tLS0t4lgopqnBr0vbztX8485Z+7xGwxF7iEIPIiStnugXgVvXCf2NjA/i03W5fu3YNyTTOrXBfa2NjQ4uQM/+S2Tnzyt4jzjSIHD/70hV8DYCSJl8YZZq3MNzaarWQScHRGIv4eIAKgHCr6o1MMaEqenxeDfEl67ERxV4bL0EfX74qPb754lY8OVVvTGFOik8FQEwgNnBcgOcDGFWQ8KKoFnzFE2detFc1xLLMmdeXrthrCa7H9z9ObJQe3xz9Xtba2lpdea2srMCv0qyurtbr9ZWVFWyEJvh9oUajAfXxn7CB+kajEW8qYo38nlIRUbNfs+Br76tC9MxR3qqmmVDGo1UUMbFtt9vwvodJK2S16gOt8OSr9s2f837rS7f07/MEKbGXOMQg+opJzrylxzen3IocGgRBu93GW1ggAtUCNlBW/40fDsSDkhMTvnRLH4sEJrGXOMQg+opJzrylxzd33Io3rDBXjYcUcivexYKa+P2uuC7UcGLCl27pY5GAJfYShxhEXzHJmbf0+OaIW+HqHu9iEbHdbgPt4gMAy8vLULanVIxOTkz40i19LCI6UBB7iUMMoq+Y5MxbenxzxK3qOQBe+8MDqsCz+PUr8AmC0mND9pLYSxxiEDl73peu4GsAlDT5wijTvO64FakTP1sFz47APaiNjQ28wIcDU8xPwa0qvUIHiUUScAYxU0yQcXzpCr4ECIPoCyPOvKXH1xG3wjOqJPEMgmB1dRVvQ7VarZmZmdOnT7/xxhvValUtV+UlHrDzABDQEHvebnjp5d8DRXmed1zcirek8OoeD1IxgQ2CYG1tTf1WwGq1Oj8/P6e8FhcXa/ISD9h5oFqtcrjVbhLp5dMDAPEQ752Y9TvTHTG3djodTFHxUVOoUR+Ngly13W4TO6vVaq1WW1hYmJ+fX1hYEGL1GcUFnFu4tYCgZVtyabkVUk6VJdX8HA9MW90XJKRBEMBRqaqFbKvl1mzOlt7igcgDwq2RJ0r7f9m4FZ9/Am7FL5eCDz41Gg3It1UOVS/81TL0hLy10+kIt5Z2E/gwTLjVh9edzlkqbgXGxNNSpEW89q/X65CTdrovTFTxwj8IAuyMPAsDCrc6DcyyTybcWnaEa6XiVvhearw3RZ6FarVa9XodM1k8FsBP90MTOYfF8wHh1tJvBpcGCre69LaXuUrFrUEQqPSKiSeybb1ex9tWwLzQFO8JQ+ENO/WsFirhXlYcsysLtZcv1Z59u7bvfPj37NuheGUh3lFqNrUHxsGtHy5cOX7p5aNvHXru/P7nzu8/+tah45de/nDhyqZ2tD/jS8Kt8CUpeI0fPxYAQoRnVCEVhWt/+KVVfJoVs1SVVaFsmbfuO1/bfY7+7TvvD+GMM09PVCpbJ2eyPE82hIp2UaMaRzt43ipHzq3nPjhz+PyTvzm3l/wdPv/kuQ/O5M187XqGCIAhVLRTj6OyJNwKB6aQbGI5TrXwjCpc+2Ouig8JxPlUrUnl1r9ffL9Wo6yKPFur1aDDCFFcDCMremUkRO0yFhdnJrdm41ZLle64E9ODlL3YNWDr5EytVrMcR7vscVfO/Pm5yk+fjv9t/fN7Q089Wm4998EZQqlEHDm9Fij2fPFvIbkVf+8PL/YhCQUqVG9MIYFi7gmtoNiJXiqHJpXN3Do3P//isZNmbn3x2Mm5+Xl1N55+/7VfzT7+zOzOv1z8k1pvUyZstTg9ASTV5akwnCam0z/LAOxm0xOXNIRKrVYjq4XRVG7F8Q2F4aY2DJi1abH6f5XJ5ybfTXds6sgj5NYPF65oM1aVXg+ff5IcDmye2FO51WUIFZJbMSHFG1MqtyY9LQBnpvBAK5JyEpPG683cOnvhnRdePQHc+tO/zj8w9duvPPC9L9337a/9YNePX3tr97lwr73w6onZC++ou+6Z2Z2Xrr57ee7i1JuPqvWpZTMr2QeQfU9c0hAqReTWxSP333LLLfcfGaBRLbcuLh65/+abSU90V1JhhNx6/NLLKo3e8/Vt+KfWH7/0srqYzRN7wq1xNiM19HNZeGCKD06BAj4AAKJKtYQfyQRmkeiSe1mvnKwit+44cPi+R3+288R7u85c+f6R1x4/fRm59ZWT4ae58HXg7CNQPnD2Yay0KQDBVSam4527GWJ0UNC9vu9fcfeqe9fm2p7xQAQlyG1TVTBr7k0VnVTY5K1DTB1ON7gmNQeHAafDY47QEU99ix53qDOiJ6tP3HVL9CKMaeDWW265pUuwA1yMY8YLI+TWo28dUjn0N+f2PrjnWw/u+RapPPrWIXUZmyf2EOXBSAlvK4BDBkIoitharRYqTkz3tbpNfTG8MjTBXaS8dXnwdePGjaXu6/r169euXVtaWsJ2rF9eXr5x48b169exaVQFwq0vHTuF3HrPju/uPPEenrRCAfLWl46dUuP7qTdDbj1w9mHyp/ZJKofAV0Ls4x3iqeXM5MTkTBgH5Fgz3hMDEZow/qYneze4DCrh+N1lodbizORk92iiG5E0FukU0W00Wp88NUyHfIrHxeAT4qLodLe3H4ghi4vVJ+66GUj15pvveqKq2TZaboW5kJG7qhpdAlO1Wh06FEnsxQ8EtNx6+PyT6ho2T+xhSOMbPwZMFLEha8Z3B8QPBHOff7s7DoJHu/vQyRyIh46N4RRp3qreuVLvX8W/cgUTUpJ7Yr1NgeiS+B6OWwEGQqz2OWz/LXSQYQlrINhQ6FJMj+biPTEQIZjUKOypR/o4bF8l0sEmLPSX2kto+/8hEffHiZgY1aFAVgsiqkOfSDXcKt290Sd0eF/B/pEdsKnC6/okSsVlGLgV+iDD3vXEwAUKjoCFEeatw3ErrGQzxB7GVZxbISTUIO+GcI9qVcV4OJFWRBYLRcpbgQEJx+HdqmaziRRJjgWwnuhivU2B6BJuHTgTeOq5rz+ye+eJf/zkjQ8eOvyHH/7xbNKZADO+Qb3LIN2L3u57bzyABrsBqVlwK75TK1dJ2sExyCJq1WRtKuVh8BFy7I9jN7V2OjU5xQFxxnAZXXMIz3btCunVfGmfyq0w0ZH7w3HIeQKuAQoj5NbhzgRgGUNzK6gXIvbUMKBvz9247L/PRyVg21BRyVrUcXq3EAa3hhZiwhs2VIN9nOlq8lZYBH7+CteEhIs1UBjhWgm3DtzLmp3fceDwPTse+vI3v/ONH+157Pi7yK3kXtZI4rvLCxAjesaEeOo+ONDN0SBkukdFJNR6b85KxCDL4UOvBhUt2YGNmbgVVFKn1k5n5tauSte8iGXJfoBbWEkMa+ZWoFQ4VTATa63W+0Bk/DMpJGK1Iom94e5lbZ7YUzmRRK82hDAkhFvD8CNnAiDiJwgwQMfHrcM9gzWq+A7pNZkxVboht+xJqMW5FVbYHaH3UJdBBZrwohtjlEyK9aS/ugf6fcJa/dREHVRUEo8PiOlqRK2aFLtWqyFLEorUcis8JxAd1N5/xHh/A+0aYd463DNYsBJm3gqD5Dz21DAg0asNIcQoVNzkeStkqfg8Fpy3ap+yGh+34kcDyC0sFLEDIscpdGMizL96wR29/0ZiL5x6YihF9NTlnn4OG/EuLgYDcbF7/0sZoTddPBxRJeLQ3lzA+HB5pVIezkWGwnHspwZr8LxMfQ8wvU9snZjY2l8krkctwK0te261vIWFU4yQW2u1msvPDhQu9jCuuld4PQmBoCE0M7k14tOwa1SOh1OoqFzh4YBYKPx5KzyJpf6wFWap8cJYuRV86uwzr0BM0QFR/4ESWAawDJzCIuWFnbdOzkDIROkV6akGYljuvfo8HuXIvcHiMYcDhj2i0MzErb0xLaZWF9PtPrBO1RaM+Mhv/Xtc2JRa0OatqVraDqPlVqDX+E2t35zbO47PvEY+7COk2ogBAFcwQF5hV0+xR8KALG9gd/RuW/RSllAxCuB4nJefWzudDn5na5xMSY0DbpXvalG3WQ7LcCyg7hkvixw5t9ZqNfmuFi9QJk1a+LyVsKdZdMCtSY6W+px4AG9n+V3POLjVr0UyO/GAcKuZjfuthJfJvVriVhFz6wFyoedrncKtvjzvbF7h1j57mkvCrc6CckwT9Q7+jPcfxjR1fFjh1rhPSlYj3Gpm1H6rcGvJQt+vOcKtfv3vYHbh1j57mkvCrQ7CcfNMIdxaeqyFW82M2m8Vbi39ZnBpoHCrS297mUu4tc+e5pJwq32AXrjwT/vOm7OncCvifnnu8uW5yyiWpiDcambUfmucW6vy0nng9ddPf+ELv3j99dO6RqnrewBii8RVP+CSS/0hSlF68OiDDx59sBSmUCOG+74IRH6I2BhON/G7WnC41IKztZKVLC8vkxp70deah553//7ZSmXv/v2z9jaqPYee12Mcbyp8gyAYob0rn6xsmdqyZWrLyicrahhoy75iY4T2au1KqnRmr3BrEgSJ9c6wwRWsrHyyZctUpbJ3y5aplZVPsN6+4H7NsDbOvKXfewS+Edq7f3Z/ZW+lsreyf3Y/mSUucjDi6I7Q3rhRhhrOmjPpCrcaUNA3ZfIvGWI4XUhaw70ybOo63LyweF+6pd97JDZGZS8krcCtNqmr4EuAMIiZfCXcavCkvimTf8kQQ+hi0grcOlzqOsS8uHJfuqPiGjTEslB0ezFptUxdi26vJazYzZm9lfXCvpaXlwu79gwL37NnBlgV/92zZyaDfmG7bhJ8EZ+R2PvRfz+6/enbgVXh39ufvv2j/36Es+SnMBJ782NOfCWSt+L7mW3B2fteEAQkaR06dXW5ZtWPnHklb1U9aS6jn0nSapO6oq55Cm0rR7f0+Aq3amPGVMmJp6y66kkr5q1DnLpmnVe135du6fee6uSRPCegnrSqqav51FXwJUAYxEy+Em41eFLflMm/ZIhMutqkdbjUNdO8nDWPUFe4lTjTIAK+2qQ1NXX1FRulx1e41RCx+iZnsZiUtAK9ZnrW1dmaics485Z+7xFfMe1NSlqBWw2pKwcjji7TXuI9e5Gz5ky6wq32oPR6ZvIvGd1e15C0DpG62s9LFiyfHYg7xFDD8TOTawxJqzl15ayZo8u014CCuYmz5ky6wq1mIDStmfxL9O11L178aPfuM+rfp5Sqirt3n7l48SMyfpJoP298BF+6pd97xNVMew/97dBgvOz+lFLVmkN/O0RmBFHw1bpFW5nJV8KtWh+aKjP5lwzE0a1U9pLR7EXOvL50mVxj7xzSszT2Vvb2djcxkIilsZfYlSQ6s1e4NQmCxHpn2JAVCLcShxhEXxhx5h35e4lwqzZCOBhl0hVu1frfVJnJv2Qgjq5wK3GmQeT42ZeucKsBUNLkC6NM8wq3EtTSxUz+JcNxdIVbiTMNIsfPvnSFWw2AkiZfGGWaV7iVoJYuZvIvGY6jK9xKnGkQOX72pTtybt19ZrfBRdhUGnvRInPBmb3CrWYgNK3OsCFz33zzvnr9f6TSUvS1Zs68I+eanPtK7LUEyONzgZniWbjVHtBez0z+JaNzdL/61SNHj14kA1qKnHl96QrXWIKr5ZpTC6dOLZyyGUHwtfES9MnkK+FWe8f2embyLxmdo/vrX795770vkAEtRc68vnSFWy3B1XLrvS/ce/TiUZsRBF8bL0GfTL4SbrV3bK9nJv+S0Tm6H374ry1bpqrVGhnTRuTM60tXuNUGWehDMKrWqlumttT/V7cZgejaqGAfjm7p8RVuxTixLXDiiaO7vLxcrdbuvPOXQ9ArZ15fuqXfeyTgRmVvtVa985d3VmtVMn6SKPgmeSZen8lXwq1xB6bUZPIvGYujC3uvWq3dcccvDh680G53yOAGkTOvL91RcY3BLdqmQtv70j9fuuMXd9gTq/Y8QesWbSXHV6XHV7hVGzOmSk48cXQxFufmPt6+fXr79um5uY9NC1XaOPP60kV7FTtsi77WzJmXaS/8pOvcx3NzH8/Zuqnbj7Nmji7T3kw2qp05a86kK9yqut2qnMm/ZESOrhqL7Xbn4MELn/vcAfhOrDz8e9NN+7Zte37XrplTpxYajSYYPip7iRtTRc68Zt1Gs3Fq4dSumV1fnP7i6ierQRB89snPwhdN4b9rzbUh6j+z/zM4AhQyjXP71O2WB6zEe2Z7SWcicnTVeCbDpoqceZ3pyu9lxX/nJqc1Of99oX//u37s2AePPXby7rt/d+utT01Nza6tNTiuzJu9a421qdmpW5+69e7f3f3YyceOfXCsvlbnGEh082YvWd7IxdLbK3lr6nsk7eDsfY9MXKD3eTy1eP/9G8QKezFv9v78zZ9vn95uvuLmxEbe7LVBSuw1eEm41eAcfRMnnji6xdp7cGrx+c9PXb36H70f02rzY+//WuHH4RrNRrvTNq968+ALfhB7DfEg3Gpwjr6JE08c3fxwjd4vutqpqdnt26czPdKAw+TE3nanvX16+/H547gwQ2Gz4Sv2GoJBuNXgHH0TJ544ujnhGr1TEmrX1hrbt08fPHghod1UnRN7D144uH16e2rGCpZsNnzFXkMEC7canKNv4sQTRzcnXKN3SkLt+vr61av/ue22p/HJgYSOmuo82NtoNm57+rar/7mqWZ+uahPiq3ODVV0e8LVaqNIpE77CrYrn7IqZ/EuG5OgWNxa3bXv+1KkF4opUMQ/2fvqNJ9ue35a6VOywOfFF8zMV8oBvpgVn/ZyFcGtW9wac/cPRLW4s7to1s2vXTFZH58He7sJ32a98c+Jr7x+1Zx7wVddjU86Er3CrjUsH+mTy74BmwOLl4sbip992t23b88QVqWIe7P39pd+/c+Od1KViB05s5MFeNMSyIPYaHCXcanCOvokTTxzd4u69RqN500379N5Mri2uvck2mVrEXpN3Bts4+8iZrnDrIGgWkjNsyFoKvfeG+EGaPNhr+bMoiBQnNvJgLxpiWRB7DY4SbjU4R9/EiSeObqH3XkG51fJnqDFQNi2+6AH7QqHj2cZM4VYbLw304ewfjm6hY1G4dSCGdEKh8dUZlFJXenuFW1MiIN7M4UeObqFjUbg1HkikptD4EltsxNLbK9xqEwYDfTj8yNEtdCwKtw7EkE4oNL46g1LqSm+vcGtKBMSbOfzI0S10LAq3xgOJ1BQaX2KLjVh6e4VbbcJgoA+HHzm6hY7FgnKrPCcwEPoxYdPGc8wTmgrhVo1TzFWceOLoCreacVFbOX72pVtofFXnW5ZLb69wq2Uk9LvJ3uv7Iq2EvpK8Nc1VQem5hnig9PYKtxLE00Xki/SusR4c3ULHYkG5VZ5vjYXwQMWmjecBLyQI8ntZI/8doHENWOjfF6pU9mb1Sx7srex1t0HyYG9WjDj9S2+v5K0JbzrJ1Zz3ao6u5K3JmNAWjp9VXclbqWcHZdVXgy3pUqHjOd28IBButfHSQB9OPHF0Cx2LciYwEEM6odD46gxKqSu9vcKtKREQb+bwI0e30LEo3BoPJFJTaHyJLTZi6e0VbrUJg4E+HH7k6BY6FnfvPjPgRAshD/bK861moDZtPJvdAq3CrTZeGujDiSeO7ri5piov5x5QA2vc+KpzqWVOTHJ0S2+vcKsaZlZlTjxxdMcdi9VqtSYvhx6oVqtqwI0bX3UutcyJSY5u6e0VblXDzKrMiSeO7rhjUbjVIa+GUwm3Wu03XSfOPnKmK9yqg85Y5wwbsgrhVsfcN+7phFtJhNuLvvZgpnmFW+0B7fXM5F8yOkdXuHXcZOd4fOFWsjvsRc4+cqYr3GoPaK+nM2zIyoRbHXPfuKcTbiURbi/62oOZ5hVutQe01zOTf8noHF3h1nGTnePxhVvJ7rAXOfvIma5wqz2gvZ7OsCEr88WtVxZqL1+qPft2bd/58O/Zt0PxyoJjIirhdMKtJMLtRV97MNO8wq32gPZ6ZvIvGZ2j64tb952v7T5H//adzwvZTU9UKlsnZxYX87Ig63UIt5LdYS9y9pEzXeFWe0B7PZ1hQ1bmnlv/fvH9Wo2yKvJsrVaDDtZkYuoYUmRlYnqQIhcXZya3htUGTT638kcwLM/QJNxKItxe9LUHM80r3GoPaK9nJv+S0Tm6jrl1bn7+xWMnzdz64rGTc/PzKn2cfv+1X80+/szszr9c/JNan1pejMhV7RlRqykn5TOjOsJidx0T06YZ1RVyysKtZHfYi5x95ExXuNUe0F5PZ9iQlTnm1tkL77zw6gng1p/+df6Bqd9+5YHvfem+b3/tB7t+/Npbu8+FrPLCqydmL7yj8sszszsvXX338tzFqTcfVetTy0BqJEXtZa2DySwZSmVG0mQpqiMIt5KoM4ucvTDueE5aOWfNmXSFW5MgSKzP5F8yCkd33LFIPpf1yskqcuuOA4fve/RnO0+8t+vMle8fee3x05eRW185OfBJ2QNnHwFGO3D2YUtqw26ESeFAYOvkDHTonQ9U4NU/PUBmBFrE/rVaDZt6I3Qn6A2gHNFiN7W90j3FTVecmO5rdcfsi7EjDrQUCpK3kt1hL3L2kTNd4VZ7QHs9nWFDVuaYW186dgq59Z4d39154j08aYUC5K0vHTulUsZTb4bceuDsw+RP7ZNUJicAXTGkK+g/MzkB5R7JRuSIzGjm1u61fm+0pBFqtVo8b01RjCgYFh8Sd/d0GMYhaTgxXLiVRLi96GsPZppXuNUe0F7PTP4lo3N0C8GtQB+EWC1z2B7lRXeuwgQwIlDCStGhaEi7NtwKI6unqCpx4whxbrVX7K1EyVXVYcn6QRRuJbvDXuTsI2e6lWV5iQe6HjCdCTz13Ncf2b3zxD9+8sYHDx3+ww//eDbpTIDDrbVarXtBHV7vA6mpF/gRefWu6fGhAqQwQ97aTypRu1sAtsURNNyqXOGrqn3F6J1AZXlwguG9QeVWib6yekDyVvs3y15PZ+97ZGWO89aBe1mz8zsOHL5nx0Nf/uZ3vvGjPY8dfxe5ldzLYnIrkGBIrhEzwYC9S+woK8yct0acDaORf1O5VU14Vd1Qkc2tiPK48cWJSKGs8UzMRNGZvcKt6HPbgjNsyILGvfdI3jrcM1hAPcOdCYAuEFZIhgptqYeeanqrZovAx6oWkmY8paUUGR0+QE8k03RFZZE4HQwevTskPs4lZwIkwu1FX3sw07zCrfaA9npm8i8ZnaPrmFvxowHkFhaK2EHlKX45pNGtExMhtfZZqcutvZroAr/3qIDKaGF5ILftf2Srm7n2xwwHiWhRHSFOpimK0SAqywu3krDXiuOOZ+2kQRBw9mAmXeHWJAgS6zP5l4zC0R13LJK8FVnS8Wdegd2QInEZwHHhoefWyZmQDjXc2ktd4WR0YlolzSjbjU5No0Q1zonA4+ozWP2poTZ63hZWgSvUTKfMgt2wIHkr2R32ouU+arfbrVaLDGupS7RAzKQr3Kr1oakyk3/JQBxdX9wq39WCbDjagnAr2R32onkfAaU2o1en01FHNuuqPePlTLrCrXEHptRk8i8Zi6Pri1tHSygyGnpAuJXsDnsxaR+12+2IUSjyKN4AAAk3SURBVPv/k2GTdEk3rZhJV7hV60NTZSb/koE4usKtyErlKAi3kt1hL6r7qNN9gW6r1Wo2mxsbG+12u9PpNJtNOROw92q/57i5pj/TYEnFdbAlXeLojtvepPPWchBZDq0Qbk3fMAk9YB+RLBWu/fEEALi13W6TMTh7MJOu5K3E8+liJv+S4Ti6wq055EfOkoRbye6wEYE619fXkVjb7fbGxgYcAagjQAekWmzi7MFMusKt6HPbQib/kkE5usKtHCLLoa5wK9kdBlG9PdXpdNbX14FPMS0VbqXeyzPX0LVGMmfNHF3h1hzyI2dJwq3RljL9D5f2eGeq1Woht25sbGBaGudWIF/sgHNw9mAmXclb0ee2hUz+JYNydIVbOUSWQ13hVrI7tCJyK6ao8ef/oc/GxoY6AtzXEm5VfWJbHjfXJK2Dw48c3XHbW5WXcw+oMTZufNW51DInJjm6cXs7nQ4QYrPZVJkUc9J29wV5q2oCOR+AJjhvVceBes6aM+lK3qpiZFXO5F8yIkc3HotkcIPImdeXrthrAJQ0+cKIM28cX+BQvDGFtEjqm83m6uoqegATW6yBAnCrPINF3GIlxrGxUut24sSEL12xV/BN8oCvmOTMS+JZpUIoN5tNsFdlW2iq1+t4sa8mreqHXIFzkaDRdZw1Z9KVvBV9blvI5F8yKEeXxCIZ2Sxy5vWlK/aaMVVbfWHEmZfgC6SJVAi5KoitVku9bdVqter1OiSkmLTiYUKz2UTaVV2EZc6aM+kKt6LPbQuZ/EsG5eiSWCQjm0XOvL50xV4zpmqrL4w48xJ8gVvxfhQRVWM7nU69Xoee0A2IGD6Fheysqqhlzpoz6Qq3qm63KmfyLxmRo0tikYxsFjnz+tIVe82Yqq2+MOLMS/DFDBTsiotImu12G/NW4NZWq4Wtqlu0Zc6aM+kKt2r9b6rM5F8yEEeXxCIZ2Sxy5vWlK/aaMVVbfWHEmTeOr3oOEAQBiHCBj0euUMDzVvPlv+oiLHPWnEm3sl7Y1/LycmHXPszCxd5hvFYcndLju7a2trq6urKysrq6ur6+rtoLTWtra/V6fWVlBUBbWVmp1+uNRkMV6/X66uoqVuYZXslb8f3MtpDpvYsMytGNv8+TwQ0iZ15fumKvAVDS5Asj+3kx8cSz0Rs3bgRBQO5BqakrqGgzU/t5iaPinzuIdzDUZJpXuNXgSX1TJv+SITi6wjXEmQaR42dfuiXGFwgUHzUF0rx+/brKrfBhVnJvCm9tEax9YZRpXuFWglq6mMm/ZDiObon3HvESiGKv1i3aSk5cjVZX+9kq9eQ0CAK4T7W0tARlkpnCM6rwHaxaY13mnmQBmXwl3Eq8ly5m8i8ZjqMrXEOcaRA5fvalWwh84Qv9kA2Jr/ACH08AoCfhVrhPtbS0hOMYoNQ2kXm1fZIqnekKtyZBkFjvDBuygkLsPbJmjq/EXuJMg8jxc6pup9PBJ5yAPVFsNBoqPwKHwjrVnmoZWpvNJuStBqMMTalrzoOucKsBBX2TL1yFa/R46Gp9YcSZN7f4qveX1Ef6NzY26vU6/IYKXN3DL6moxwJwYIoPq8KXrUBWe+3aNR10VnUcPzvTFW61wlLt5AwbddIgCHK798g6VZHjK7FX9aS5zPFzqi5++xSsAagW+HFtbU1l3iAIkHyRTyGxJTepWq1W6fEVbjUHraY1NRY1OlEVR7f0sRg5qfe/2EscYhA5cWWjq34HCh6qwj0lJFO8SYU394F/8fEAOFuA3HYz5ArCrYaI1TfZxKJeMwg4usI1SV6N13P87Es3h/hCxhoEAbAkHLNiBor36yF17XRfWMZu+HVWBKYc2ktWGBczxYZwa9yBKTWZ/EvG4uiWPhaJr8Re4hCDyImrJF0gR5VPMQNFAgVd9VYVNMG/mKJqV156fIVbtbibKpNi0aQTtXF0Sx+LkZN6/4u9xCEGkRNXqAsX/vgMAByYgoiHp7AGINNWqwW65FiAnM8mLbv0+Aq3JkGfWI+xmNgjuYGjW/pYJG4Te4lDDCInrlAXr+Lh7pPKrUnHAqgLiaphhfGm0uMr3BoHPaUG4ymln66Zo1v6WCQOE3uJQwwiJ65UXfU+FeFWYF5yLNBoNGBV6lOuhnWqTaXHV7hVhduqrMailYLSiaNb+lhU/BQWxV7iEIPIiSuiizf3CbeSYwE4QEBuNawtqan0+Aq3JkGfWE9iMbGfroGjW/pYJA4Te4lDDCInruK6QK/qswEwtXrPCmriuoZFkqbS4yvcShBPFznxxNEtfSwS14u9xCEGkRNXcV1MUclvWZNjAXwGy7AwQ1Pp8RVuNaCvb4rHor6frpajW/pYJA4Te4lDDCInrrS6SK/qYwOQt+JHA4RbDYgEQSDcavaPplUbi5p+uiqOrnCNzqP6Oo6ffenmDV9yAhBnW+FWffBFtcKtkSes/5e9Z+0q+Ryavatyd++OnLfCJ1bJ8wCcvZC39xIbqDLZK7+Xledf3BlYm/r7QgMNJRXEXl/ANhqNevQa3xpKj6/krTZvVwN9Mr13DWjK9wkQdxjF0uc1xPpc2buxsYGPspJ1qiJnL+TKXtUoQzmTvcKtBk/qmzL5lwzB0S19LBJfib3EIQaRE1e+dEuPr3CrIWL1TRKLer/oajm+Kv3eIw4Te4lDDCInrpzpCrcaENQ3OcOGTC97jzjEIPrCiDOv4GsAlDRx/OxMV7iVoJYuOsOGLEX2HnGIQfSFEWdewdcAKGni+NmZrnArQS1ddIYNWYrsPeIQg+gLI868gq8BUNLE8bMzXeFWglq66AwbshTZe8QhBtEXRpx5BV8DoKSJ42dnusKtBLV00Rk2ZCmy94hDDKIvjDjzCr4GQEkTx8/OdIVbCWrpojNsyFJk7xGHGERfGHHmFXwNgJImjp+d6Qq3EtTSRWfYkKXI3iMOMYi+MOLMK/gaACVNHD870xVuJaili86wIUuRvUccYhB9YcSZV/A1AEqaOH52pivcSlBLF51hQ5Yie484xCD6wogzr+BrAJQ0cfzsTFe4laCWLjrDhixF9h5xiEH0hRFnXsHXAChp4vjZma5wK0EtXXSGDVmK7D3iEIPoCyPOvIKvAVDSxPGzM13hVoJauugMG7IU2XvEIQbRF0aceQVfA6CkieNnZ7r/D9wmNOKzPAhKAAAAAElFTkSuQmCC;" vertex="1" parent="1">
          <mxGeometry x="80" y="80" width="387" height="161.74" as="geometry" />
        </mxCell>
        <mxCell id="XfDxgbfiOiKdEspsg-ZD-2" value="Value：统计对象&lt;div&gt;StatisticItem 统计对象的公共方法&lt;/div&gt;&lt;div&gt;StatisticHistory：历史统计对象（保存历史统计的对象数据）&lt;/div&gt;" style="text;html=1;align=left;verticalAlign=middle;resizable=0;points=[];autosize=1;strokeColor=none;fillColor=none;" vertex="1" parent="1">
          <mxGeometry x="100" y="270" width="340" height="60" as="geometry" />
        </mxCell>
      </root>
    </mxGraphModel>
  </diagram>
</mxfile>
